<mxfile host="app.diagrams.net" modified="2023-10-04T04:53:50.521Z" agent="Mozilla/5.0 (X11; Ubuntu; Linux x86_64; rv:109.0) Gecko/20100101 Firefox/113.0" version="21.8.2" etag="Q_tlZu3jCemQoFROOUq5" type="github">
  <diagram name="Page-1" id="ebV9adivXT6Y1E6krrPC">
    <mxGraphModel>
      <root>
        <mxCell id="0" />
        <mxCell id="1" parent="0" />
      </root>
    </mxGraphModel>
  </diagram>
</mxfile>
